<?xml version="1.0" encoding="UTF-8"?>
<!-- Generator: visioncortex VTracer 0.6.3 -->
<svg version="1.1" xmlns="http://www.w3.org/2000/svg" width="1280" height="1280">
<path d="M0 0 C422.4 0 844.8 0 1280 0 C1280 422.4 1280 844.8 1280 1280 C857.6 1280 435.2 1280 0 1280 C0 857.6 0 435.2 0 0 Z " fill="#FAFDFF" transform="translate(0,0)"/>
<path d="M0 0 C1.27 0 2.55 0 3.86 0.01 C4.57 0 5.28 0 6.01 0 C8.39 -0 10.78 0.01 13.16 0.02 C14.86 0.02 16.57 0.02 18.27 0.02 C22.91 0.02 27.55 0.03 32.19 0.04 C37.03 0.06 41.88 0.06 46.72 0.06 C55.89 0.07 65.07 0.08 74.25 0.1 C84.69 0.12 95.14 0.14 105.58 0.15 C127.07 0.17 148.56 0.2 170.05 0.25 C171.01 2.95 171.97 5.65 172.93 8.36 C173.2 9.11 173.47 9.87 173.74 10.65 C175.92 16.81 177.93 23.01 179.82 29.26 C180.14 30.31 180.47 31.36 180.8 32.45 C181.82 35.8 182.84 39.15 183.86 42.5 C184.58 44.84 185.3 47.18 186.01 49.52 C187.07 52.98 188.13 56.44 189.19 59.9 C191.73 68.19 194.28 76.47 196.86 84.75 C199.87 94.4 202.83 104.06 205.78 113.73 C209.74 126.71 213.74 139.68 217.79 152.64 C222.2 166.69 226.56 180.75 230.93 194.81 C231.12 195.44 231.32 196.07 231.52 196.72 C237.06 214.58 242.59 232.44 248.08 250.32 C250.8 259.19 253.54 268.07 256.3 276.93 C260.21 289.48 264.07 302.04 267.93 314.6 C274.94 337.44 274.94 337.44 282.05 360.25 C286.07 373.07 290.04 385.9 293.99 398.75 C295.04 402.15 296.09 405.56 297.14 408.96 C300.21 418.9 303.25 428.84 306.16 438.82 C306.62 440.37 307.08 441.93 307.54 443.49 C308.36 446.29 309.16 449.09 309.96 451.89 C310.31 453.1 310.67 454.31 311.04 455.56 C311.33 456.6 311.63 457.63 311.93 458.7 C313.19 461.57 314.41 462.63 317.05 464.25 C317.21 463.65 317.36 463.05 317.52 462.44 C319.85 453.62 322.66 444.97 325.49 436.31 C326.02 434.67 326.56 433.02 327.09 431.38 C330.9 419.71 334.77 408.06 338.66 396.42 C342.86 383.88 346.97 371.32 351.05 358.75 C355.33 345.56 359.65 332.39 364.05 319.25 C368.4 306.24 372.69 293.22 376.93 280.18 C377.22 279.29 377.51 278.39 377.81 277.47 C379.89 271.06 381.97 264.65 384.05 258.25 C386.43 250.93 388.8 243.62 391.18 236.31 C391.47 235.41 391.76 234.51 392.06 233.58 C396.2 220.86 400.4 208.16 404.65 195.47 C409.54 180.86 414.32 166.21 419.09 151.55 C423.38 138.39 427.71 125.24 432.11 112.12 C436.73 98.37 441.16 84.57 445.55 70.75 C450.2 56.11 454.89 41.5 459.74 26.93 C460.11 25.83 460.11 25.83 460.48 24.7 C467.86 2.44 467.86 2.44 470.05 0.25 C472.28 0.15 474.51 0.12 476.73 0.12 C477.79 0.12 477.79 0.12 478.87 0.11 C481.26 0.11 483.65 0.11 486.03 0.12 C487.73 0.12 489.44 0.11 491.14 0.11 C495.78 0.11 500.42 0.11 505.05 0.11 C509.9 0.11 514.74 0.11 519.58 0.11 C527.72 0.11 535.85 0.11 543.99 0.12 C553.4 0.12 562.82 0.12 572.24 0.11 C580.31 0.11 588.38 0.11 596.46 0.11 C601.28 0.11 606.11 0.11 610.94 0.11 C615.48 0.11 620.01 0.11 624.55 0.11 C626.22 0.12 627.89 0.12 629.56 0.11 C631.83 0.11 634.1 0.11 636.37 0.12 C638.28 0.12 638.28 0.12 640.23 0.12 C643.05 0.25 643.05 0.25 644.05 1.25 C644.15 2.58 644.18 3.92 644.18 5.26 C644.18 6.13 644.18 7 644.18 7.9 C644.18 9.35 644.18 9.35 644.18 10.83 C644.18 11.86 644.18 12.88 644.18 13.94 C644.18 17.42 644.18 20.89 644.17 24.37 C644.17 26.87 644.17 29.37 644.17 31.87 C644.18 37.33 644.18 42.79 644.17 48.25 C644.17 56.37 644.16 64.49 644.17 72.61 C644.17 86.27 644.16 99.92 644.16 113.58 C644.15 127.11 644.15 140.64 644.15 154.16 C644.15 155 644.15 155.84 644.15 156.71 C644.15 160.97 644.15 165.24 644.15 169.51 C644.14 199.75 644.14 229.99 644.13 260.23 C644.12 289.62 644.11 319 644.11 348.39 C644.11 349.75 644.11 349.75 644.11 351.13 C644.11 360.22 644.1 369.31 644.1 378.41 C644.1 396.93 644.1 415.45 644.09 433.97 C644.09 434.82 644.09 435.67 644.09 436.55 C644.08 493.45 644.07 550.35 644.05 607.25 C628.55 607.27 613.06 607.29 597.56 607.3 C590.36 607.3 583.17 607.31 575.97 607.32 C569.7 607.33 563.43 607.34 557.16 607.34 C553.84 607.34 550.52 607.35 547.2 607.35 C543.49 607.36 539.79 607.36 536.09 607.36 C534.98 607.36 533.87 607.37 532.73 607.37 C531.73 607.37 530.72 607.37 529.69 607.37 C528.81 607.37 527.94 607.37 527.03 607.37 C525.05 607.25 525.05 607.25 524.05 606.25 C523.95 604.56 523.92 602.88 523.92 601.19 C523.92 600.09 523.91 598.99 523.91 597.85 C523.91 596.63 523.91 595.4 523.91 594.14 C523.91 592.2 523.91 592.2 523.9 590.22 C523.89 586.62 523.89 583.01 523.89 579.41 C523.89 575.52 523.88 571.63 523.88 567.75 C523.86 559.21 523.86 550.67 523.85 542.14 C523.85 536.77 523.84 531.4 523.84 526.03 C523.83 511.07 523.82 496.11 523.81 481.15 C523.81 480.19 523.81 479.23 523.81 478.24 C523.81 477.28 523.81 476.31 523.81 475.32 C523.81 473.37 523.81 471.43 523.81 469.48 C523.81 468.51 523.81 467.54 523.81 466.55 C523.81 452.06 523.79 437.58 523.77 423.1 C523.53 258.57 523.53 258.57 526.93 191.59 C527.3 184.3 527.66 177.01 528.02 169.72 C528.15 167.03 528.29 164.33 528.42 161.63 C528.89 152.16 529.18 142.73 529.05 133.25 C528.39 133.25 527.73 133.25 527.05 133.25 C526.54 134.77 526.04 136.29 525.53 137.82 C525.07 139.2 524.6 140.59 524.14 141.98 C522.81 145.97 521.48 149.96 520.15 153.95 C517.49 161.94 514.82 169.94 512.15 177.93 C502.45 206.9 492.98 235.94 483.56 265 C482.48 268.35 481.39 271.71 480.3 275.06 C480.04 275.87 479.77 276.69 479.5 277.53 C475.5 289.86 471.43 302.17 467.31 314.46 C463.33 326.37 459.42 338.3 455.55 350.25 C451.21 363.67 446.79 377.07 442.31 390.46 C438.04 403.21 433.87 415.99 429.73 428.78 C425.63 441.43 421.47 454.05 417.24 466.66 C413.45 478 409.73 489.36 406.05 500.75 C401.9 513.61 397.67 526.44 393.38 539.26 C388.64 553.41 384.01 567.6 379.42 581.8 C379.15 582.61 378.89 583.42 378.62 584.25 C378.14 585.73 377.66 587.22 377.18 588.71 C375.8 592.99 374.38 597.26 372.96 601.53 C372.6 602.6 372.24 603.67 371.88 604.78 C371.47 606 371.47 606 371.05 607.25 C355.7 607.27 340.35 607.29 325 607.3 C317.87 607.3 310.75 607.31 303.62 607.32 C296.75 607.33 289.87 607.34 283 607.34 C280.37 607.34 277.74 607.35 275.12 607.35 C271.45 607.36 267.78 607.36 264.11 607.36 C263.01 607.36 261.92 607.37 260.79 607.37 C259.3 607.37 259.3 607.37 257.77 607.37 C256.9 607.37 256.04 607.37 255.14 607.37 C253.05 607.25 253.05 607.25 251.05 606.25 C250.33 604.55 250.33 604.55 249.65 602.32 C249.27 601.05 249.27 601.05 248.87 599.76 C248.46 598.36 248.46 598.36 248.03 596.94 C247.74 595.97 247.44 595 247.14 594 C246.17 590.79 245.2 587.58 244.24 584.37 C243.57 582.14 242.89 579.91 242.21 577.68 C240.48 571.97 238.76 566.26 237.04 560.54 C235.53 555.51 234.01 550.48 232.49 545.44 C231.93 543.59 231.37 541.74 230.81 539.9 C230.54 539 230.27 538.11 229.99 537.19 C229.18 534.49 228.36 531.79 227.55 529.09 C223.53 515.8 219.44 502.53 215.31 489.27 C212.69 480.87 210.09 472.47 207.49 464.06 C207.21 463.14 206.92 462.22 206.63 461.28 C202.09 446.61 197.55 431.93 193.05 417.25 C192.79 416.41 192.54 415.57 192.27 414.71 C179.06 371.62 179.06 371.62 172.68 350.5 C169.31 339.37 165.91 328.26 162.45 317.16 C158.96 305.99 155.53 294.8 152.09 283.61 C150.49 278.43 148.9 273.24 147.3 268.05 C146.03 263.93 144.76 259.81 143.49 255.68 C143.15 254.58 142.81 253.48 142.46 252.34 C138.06 238.03 133.66 223.72 129.29 209.4 C126.53 200.37 123.76 191.35 121 182.32 C120.02 179.14 119.04 175.95 118.07 172.77 C116.44 167.46 114.81 162.14 113.17 156.84 C112.55 154.83 111.94 152.83 111.33 150.82 C110.48 148.07 109.63 145.31 108.78 142.56 C108.41 141.34 108.41 141.34 108.03 140.08 C106.74 135.77 106.74 135.77 104.05 132.25 C102.8 133.26 102.8 133.26 103.01 135.39 C103.07 136.81 103.07 136.81 103.12 138.26 C103.17 139.33 103.21 140.4 103.25 141.5 C103.3 142.67 103.35 143.84 103.4 145.05 C103.45 146.27 103.5 147.48 103.55 148.73 C103.99 159.35 104.5 169.96 105.04 180.57 C105.62 192.18 106.17 203.8 106.73 215.42 C106.93 219.8 107.15 224.18 107.36 228.56 C109.55 273.45 110.48 318.24 110.36 363.19 C110.34 371.68 110.34 380.18 110.33 388.67 C110.33 403.8 110.31 418.93 110.28 434.05 C110.25 448.69 110.23 463.32 110.22 477.96 C110.22 478.87 110.22 479.78 110.21 480.72 C110.21 485.3 110.21 489.89 110.2 494.47 C110.17 532.06 110.12 569.65 110.05 607.25 C95.21 607.27 80.36 607.29 65.51 607.3 C58.62 607.3 51.73 607.31 44.83 607.32 C38.19 607.33 31.54 607.34 24.9 607.34 C22.35 607.34 19.81 607.35 17.27 607.35 C13.72 607.36 10.18 607.36 6.63 607.36 C5.57 607.36 4.51 607.37 3.41 607.37 C2.45 607.37 1.49 607.37 0.5 607.37 C-0.76 607.37 -0.76 607.37 -2.04 607.37 C-3.95 607.25 -3.95 607.25 -4.95 606.25 C-5.05 603.06 -5.08 599.89 -5.08 596.7 C-5.08 595.68 -5.08 594.66 -5.08 593.6 C-5.09 590.14 -5.08 586.67 -5.08 583.21 C-5.08 580.72 -5.09 578.23 -5.09 575.74 C-5.09 570.3 -5.1 564.86 -5.09 559.42 C-5.09 551.33 -5.1 543.24 -5.1 535.15 C-5.11 519.87 -5.11 504.59 -5.11 489.31 C-5.12 477.51 -5.12 465.71 -5.12 453.91 C-5.12 450.52 -5.12 447.13 -5.12 443.74 C-5.12 442.89 -5.12 442.05 -5.12 441.18 C-5.13 417.46 -5.13 393.74 -5.13 370.01 C-5.13 369.12 -5.13 368.22 -5.13 367.3 C-5.13 362.76 -5.13 358.22 -5.13 353.69 C-5.13 352.79 -5.13 351.89 -5.13 350.96 C-5.13 349.13 -5.13 347.31 -5.13 345.49 C-5.13 317.13 -5.14 288.76 -5.15 260.4 C-5.17 228.56 -5.18 196.73 -5.18 164.89 C-5.18 161.5 -5.18 158.11 -5.18 154.71 C-5.18 153.88 -5.18 153.04 -5.18 152.18 C-5.18 138.72 -5.18 125.25 -5.19 111.78 C-5.2 98.26 -5.2 84.73 -5.19 71.21 C-5.19 63.16 -5.19 55.12 -5.2 47.07 C-5.21 41.08 -5.21 35.09 -5.2 29.1 C-5.2 26.66 -5.2 24.23 -5.2 21.79 C-5.21 18.5 -5.21 15.21 -5.2 11.92 C-5.2 10.96 -5.21 10 -5.21 9 C-5.21 8.13 -5.2 7.26 -5.2 6.37 C-5.2 5.61 -5.2 4.86 -5.2 4.08 C-4.73 0.66 -3.23 0.27 0 0 Z " fill="#004AAD" transform="translate(552.9479007720947,332.75390434265137)"/>
<path d="M0 0 C1.05 0 2.09 0 3.17 0 C4.38 -0 5.58 -0.01 6.82 -0.01 C8.17 -0.01 9.52 -0 10.87 0 C12.3 0 13.72 -0 15.14 -0.01 C19.07 -0.01 23 -0.01 26.93 0 C31.16 0.01 35.38 0 39.61 0 C47.91 -0 56.2 0 64.49 0.01 C74.13 0.02 83.78 0.02 93.43 0.02 C110.63 0.02 127.83 0.03 145.04 0.04 C161.75 0.06 178.46 0.06 195.18 0.06 C196.2 0.06 197.23 0.06 198.29 0.06 C199.84 0.06 199.84 0.06 201.41 0.06 C220.41 0.06 239.41 0.07 258.41 0.08 C265.14 0.08 271.87 0.08 278.6 0.08 C286.8 0.08 295 0.09 303.19 0.1 C307.38 0.1 311.57 0.1 315.75 0.1 C319.58 0.1 323.41 0.11 327.23 0.11 C328.62 0.11 330.01 0.12 331.4 0.11 C333.28 0.11 335.16 0.12 337.04 0.12 C338.6 0.12 338.6 0.12 340.21 0.12 C342.54 0.25 342.54 0.25 343.54 1.25 C343.64 2.6 343.66 3.96 343.66 5.32 C343.66 6.63 343.66 6.63 343.67 7.97 C343.66 8.94 343.66 9.91 343.65 10.91 C343.65 11.92 343.65 12.94 343.65 13.98 C343.65 17.36 343.65 20.73 343.64 24.1 C343.64 26.43 343.63 28.76 343.63 31.09 C343.63 37.23 343.62 43.38 343.61 49.53 C343.6 55.8 343.59 62.06 343.59 68.33 C343.58 80.64 343.56 92.94 343.54 105.25 C342.41 105.25 341.29 105.26 340.12 105.26 C312.73 105.37 285.33 105.47 257.93 105.59 C244.68 105.64 231.43 105.7 218.18 105.75 C206.64 105.79 195.1 105.84 183.55 105.89 C177.44 105.91 171.32 105.94 165.2 105.96 C159.45 105.98 153.71 106 147.96 106.03 C145.84 106.04 143.72 106.05 141.61 106.05 C138.73 106.06 135.85 106.08 132.97 106.09 C132.13 106.09 131.28 106.09 130.4 106.09 C126.67 105.76 126.67 105.76 123.54 107.25 C123.44 109.24 123.42 111.23 123.42 113.22 C123.42 114.51 123.42 115.81 123.42 117.15 C123.42 118.6 123.42 120.05 123.43 121.5 C123.43 123.02 123.43 124.53 123.43 126.05 C123.43 130.18 123.43 134.32 123.44 138.45 C123.45 142.76 123.45 147.08 123.45 151.39 C123.45 159.56 123.46 167.74 123.47 175.91 C123.48 185.21 123.49 194.52 123.49 203.82 C123.5 222.96 123.52 242.11 123.54 261.25 C125.12 261.26 125.12 261.26 126.72 261.26 C152.24 261.37 177.76 261.47 203.28 261.59 C215.62 261.64 227.97 261.7 240.31 261.75 C251.06 261.79 261.81 261.84 272.56 261.89 C278.26 261.91 283.96 261.94 289.65 261.96 C295.01 261.98 300.37 262 305.72 262.03 C307.69 262.04 309.67 262.05 311.64 262.05 C314.32 262.06 317 262.08 319.68 262.09 C320.47 262.09 321.26 262.09 322.07 262.09 C327.43 262.14 327.43 262.14 328.54 263.25 C328.64 264.6 328.66 265.96 328.66 267.32 C328.66 268.63 328.66 268.63 328.67 269.97 C328.66 270.94 328.66 271.91 328.65 272.91 C328.65 273.92 328.65 274.94 328.65 275.98 C328.65 279.36 328.65 282.73 328.64 286.1 C328.64 288.43 328.63 290.76 328.63 293.09 C328.63 299.23 328.62 305.38 328.61 311.53 C328.6 317.8 328.59 324.06 328.59 330.33 C328.58 342.64 328.56 354.94 328.54 367.25 C327.49 367.25 326.44 367.26 325.36 367.26 C299.84 367.37 274.32 367.47 248.8 367.59 C236.46 367.64 224.12 367.7 211.77 367.75 C201.02 367.79 190.27 367.84 179.52 367.89 C173.82 367.91 168.12 367.94 162.43 367.96 C157.07 367.98 151.72 368 146.36 368.03 C144.39 368.04 142.42 368.05 140.44 368.05 C137.76 368.06 135.09 368.08 132.41 368.09 C131.61 368.09 130.82 368.09 130.01 368.09 C126.48 367.8 126.48 367.8 123.54 369.25 C123.43 372.31 123.39 375.35 123.38 378.41 C123.37 379.86 123.37 379.86 123.37 381.35 C123.35 384.64 123.34 387.92 123.34 391.21 C123.33 393.56 123.32 395.9 123.31 398.25 C123.28 404.63 123.26 411.02 123.24 417.41 C123.22 423.4 123.19 429.4 123.17 435.39 C123.12 447.26 123.08 459.14 123.04 471.01 C123 482.55 122.96 494.08 122.91 505.62 C122.91 506.33 122.91 507.04 122.9 507.77 C122.89 511.34 122.88 514.9 122.86 518.47 C122.75 548.06 122.64 577.66 122.54 607.25 C106.28 607.27 90.01 607.29 73.75 607.3 C66.2 607.31 58.65 607.31 51.1 607.32 C44.52 607.33 37.94 607.34 31.36 607.34 C27.87 607.34 24.39 607.35 20.9 607.36 C17.02 607.36 13.13 607.36 9.24 607.36 C8.08 607.37 6.92 607.37 5.72 607.37 C4.67 607.37 3.61 607.37 2.53 607.37 C1.61 607.37 0.69 607.37 -0.26 607.37 C-2.46 607.25 -2.46 607.25 -4.46 606.25 C-4.49 548.69 -4.53 491.14 -4.54 433.58 C-4.54 432.73 -4.54 431.88 -4.54 431 C-4.55 412.51 -4.56 394.01 -4.56 375.51 C-4.56 366.44 -4.57 357.37 -4.57 348.3 C-4.57 347.4 -4.57 346.5 -4.57 345.57 C-4.58 316.29 -4.59 287.01 -4.61 257.72 C-4.63 227.65 -4.64 197.57 -4.65 167.49 C-4.65 163.24 -4.65 159 -4.65 154.76 C-4.65 153.5 -4.65 153.5 -4.65 152.23 C-4.65 138.76 -4.66 125.28 -4.67 111.81 C-4.68 98.29 -4.69 84.76 -4.69 71.23 C-4.68 63.18 -4.69 55.14 -4.7 47.09 C-4.71 41.1 -4.71 35.1 -4.7 29.11 C-4.7 26.67 -4.7 24.24 -4.71 21.8 C-4.72 18.51 -4.71 15.22 -4.71 11.93 C-4.71 10.96 -4.72 10 -4.72 9.01 C-4.72 8.14 -4.71 7.27 -4.71 6.37 C-4.71 5.62 -4.71 4.86 -4.71 4.09 C-4.29 0.98 -2.99 0.3 0 0 Z " fill="#004AAD" transform="translate(85.45939642190933,332.7504523396492)"/>
</svg>
